<?xml version="1.0" encoding="UTF-8" standalone="no"?>
<!DOCTYPE svg PUBLIC "-//W3C//DTD SVG 1.1//EN" "http://www.w3.org/Graphics/SVG/1.1/DTD/svg11.dtd">
<svg version="1.1"
    xmlns="http://www.w3.org/2000/svg"
    xmlns:xlink="http://www.w3.org/1999/xlink" preserveAspectRatio="xMidYMid meet" viewBox="0 0 640 640" width="640" height="640">
    <defs>
        <path d="M339.61 116.35L343.57 116.75L347.49 117.31L351.36 118.02L355.17 118.88L358.93 119.89L362.62 121.04L366.25 122.33L369.82 123.76L373.31 125.32L376.73 127.01L380.07 128.83L383.34 130.77L386.52 132.83L389.62 135.01L392.62 137.3L395.54 139.71L398.36 142.22L401.08 144.84L403.7 147.56L406.21 150.38L408.62 153.3L410.91 156.31L413.09 159.4L415.16 162.58L417.1 165.85L418.92 169.19L420.61 172.61L422.17 176.11L422.9 177.95L423.12 177.95L423.96 179.64L425.78 182.99L427.72 186.25L429.78 189.44L431.96 192.53L434.26 195.54L436.66 198.45L439.18 201.27L441.8 203.99L444.52 206.61L447.34 209.13L450.25 211.53L453.26 213.83L456.36 216.01L459.54 218.07L462.8 220.01L466.15 221.83L469.57 223.52L473.06 225.08L476.63 226.51L480.26 227.8L483.95 228.95L487.71 229.95L491.52 230.81L495.39 231.53L499.3 232.09L503.27 232.49L507.28 232.73L511.33 232.81L515.38 232.73L519.39 232.49L523.36 232.09L527.27 231.53L531.14 230.81L534.95 229.95L538.71 228.95L542.4 227.8L546.03 226.51L549.6 225.08L553.09 223.52L556.51 221.83L559.86 220.01L563.12 218.07L566.3 216.01L569.4 213.83L572.41 211.53L575.32 209.13L578.14 206.61L580.86 203.99L583.48 201.27L586 198.45L588.4 195.54L590.7 192.53L592.88 189.44L594.94 186.25L596.88 182.99L597.88 181.14L600.95 187.23L605.91 198.12L610.45 209.23L614.55 220.55L618.21 232.07L621.41 243.77L624.15 255.66L626.41 267.71L628.19 279.92L629.47 292.28L630.25 304.78L630.51 317.41L630.25 330.04L629.47 342.54L628.19 354.91L626.41 367.12L624.15 379.17L621.41 391.06L618.21 402.76L614.55 414.28L610.45 425.6L605.91 436.71L600.95 447.6L595.58 458.26L589.8 468.69L583.62 478.86L577.06 488.78L570.13 498.44L562.83 507.81L555.18 516.9L547.19 525.68L538.86 534.17L530.21 542.33L521.24 550.17L511.97 557.67L502.41 564.82L492.56 571.62L482.44 578.05L472.06 584.1L461.43 589.76L450.55 595.03L439.44 599.9L428.1 604.34L416.56 608.37L404.81 611.95L392.87 615.09L380.74 617.77L368.45 619.99L355.99 621.73L343.38 622.99L330.63 623.75L317.74 624.01L304.86 623.75L292.11 622.99L279.5 621.73L267.04 619.99L254.74 617.77L242.62 615.09L230.68 611.95L218.93 608.37L207.38 604.34L196.05 599.9L184.94 595.03L174.06 589.76L163.43 584.1L153.04 578.05L142.92 571.62L133.08 564.82L123.52 557.67L114.25 550.17L105.28 542.33L96.63 534.17L88.3 525.68L80.3 516.9L72.65 507.81L65.36 498.44L58.42 488.78L51.86 478.86L45.69 468.69L39.91 458.26L34.53 447.6L29.57 436.71L25.04 425.6L20.93 414.28L17.28 402.76L14.07 391.06L11.34 379.17L10.03 372.19L8.98 364.82L7.66 351.92L6.87 338.87L6.6 325.69L6.87 312.51L7.66 299.46L8.98 286.56L10.79 273.82L13.11 261.23L15.91 248.83L19.19 236.61L22.93 224.59L27.12 212.78L31.77 201.18L36.84 189.82L42.34 178.69L42.74 177.95L63.67 177.95L64.51 179.64L66.33 182.99L68.27 186.25L70.33 189.44L72.51 192.53L74.8 195.54L77.21 198.45L79.72 201.27L82.34 203.99L85.06 206.61L87.88 209.13L90.8 211.53L93.81 213.83L96.9 216.01L100.08 218.07L103.35 220.01L106.69 221.83L110.11 223.52L113.61 225.08L117.17 226.51L120.8 227.8L124.5 228.95L128.25 229.95L132.06 230.81L135.93 231.53L139.85 232.09L143.81 232.49L147.82 232.73L151.88 232.81L155.93 232.73L159.94 232.49L163.9 232.09L167.82 231.53L171.69 230.81L175.5 229.95L179.26 228.95L182.95 227.8L186.58 226.51L190.14 225.08L193.64 223.52L197.06 221.83L200.4 220.01L203.67 218.07L206.85 216.01L209.95 213.83L212.95 211.53L215.87 209.13L218.69 206.61L221.41 203.99L224.03 201.27L226.54 198.45L228.95 195.54L231.24 192.53L233.42 189.44L235.49 186.25L237.43 182.99L239.25 179.64L240.08 177.95L240.19 177.95L240.93 176.11L242.49 172.61L244.18 169.19L246 165.85L247.94 162.58L250 159.4L252.18 156.31L254.47 153.3L256.88 150.38L259.4 147.56L262.01 144.84L264.73 142.22L267.55 139.71L270.47 137.3L273.48 135.01L276.57 132.83L279.75 130.77L283.02 128.83L286.36 127.01L289.78 125.32L293.28 123.76L296.84 122.33L300.47 121.04L304.17 119.89L307.92 118.88L311.74 118.02L315.6 117.31L319.52 116.75L323.49 116.35L327.5 116.11L331.55 116.02L335.6 116.11L339.61 116.35Z" id="a2ngUiwYNc"></path>
        <linearGradient id="gradientffzol9Dcs" gradientUnits="userSpaceOnUse" x1="318.56" y1="116.02" x2="333.42" y2="384.13">
            <stop style="stop-color: #ff72f6;stop-opacity: 1" offset="0%"></stop>
            <stop style="stop-color: #001462;stop-opacity: 1" offset="100%"></stop>
        </linearGradient>
        <path d="M324.5 232.26L328.47 232.66L332.38 233.22L336.25 233.93L340.06 234.79L343.82 235.8L347.51 236.95L351.14 238.24L354.71 239.67L358.2 241.23L361.62 242.92L364.97 244.74L368.23 246.68L371.41 248.74L374.51 250.92L377.52 253.22L380.43 255.62L383.25 258.14L385.97 260.75L388.59 263.48L391.1 266.29L393.51 269.21L395.81 272.22L397.99 275.31L400.05 278.5L401.99 281.76L403.81 285.1L405.5 288.53L407.06 292.02L407.79 293.86L408.02 293.86L408.85 295.55L410.67 298.9L412.61 302.16L414.67 305.35L416.85 308.44L419.15 311.45L421.56 314.36L424.07 317.18L426.69 319.9L429.41 322.52L432.23 325.04L435.14 327.44L438.15 329.74L441.25 331.92L444.43 333.98L447.69 335.92L451.04 337.74L454.46 339.43L457.95 340.99L461.52 342.42L465.15 343.71L468.84 344.86L472.6 345.87L476.41 346.73L480.28 347.44L484.19 348L488.16 348.4L492.17 348.64L496.22 348.73L500.27 348.64L504.28 348.4L508.25 348L512.17 347.44L516.03 346.73L519.84 345.87L523.6 344.86L527.29 343.71L530.93 342.42L534.49 340.99L537.98 339.43L541.4 337.74L544.75 335.92L548.01 333.98L551.2 331.92L554.29 329.74L557.3 327.44L560.21 325.04L563.03 322.52L565.75 319.9L568.37 317.18L570.89 314.36L573.29 311.45L575.59 308.44L577.77 305.35L579.83 302.16L581.77 298.9L583.59 295.55L584.43 293.86L630.94 293.86L631.49 297.75L632.8 310.65L633.6 323.7L633.86 336.88L633.6 350.06L632.8 363.11L631.49 376.01L629.67 388.75L627.36 401.33L624.56 413.74L623.72 416.88L623.68 416.99L619.48 428.81L614.84 440.4L609.77 451.77L604.26 462.9L598.35 473.78L592.03 484.4L585.32 494.76L578.23 504.83L570.76 514.61L562.94 524.1L554.76 533.27L546.23 542.12L537.38 550.64L528.21 558.82L518.72 566.65L508.94 574.12L498.87 581.21L488.51 587.92L477.89 594.24L467.01 600.15L455.88 605.65L444.51 610.73L432.92 615.37L421.1 619.57L409.08 623.31L396.86 626.59L384.46 629.39L371.88 631.7L359.13 633.52L346.23 634.83L333.18 635.63L320 635.89L306.82 635.63L293.77 634.83L280.87 633.52L268.13 631.7L255.54 629.39L243.14 626.59L230.92 623.31L218.9 619.57L207.09 615.37L195.49 610.73L184.13 605.65L173 600.15L162.11 594.24L151.49 587.92L141.14 581.21L131.06 574.12L121.28 566.65L111.8 558.82L102.62 550.64L93.77 542.12L85.25 533.27L77.07 524.1L69.24 514.61L61.78 504.83L54.68 494.76L47.97 484.4L41.65 473.78L35.74 462.9L30.24 451.77L25.16 440.4L20.52 428.81L16.33 416.99L12.58 404.97L9.31 392.75L6.51 380.35L4.19 367.77L2.37 355.02L1.06 342.12L0.27 329.07L0 315.89L0.27 302.71L0.81 293.86L48.56 293.86L49.4 295.55L51.22 298.9L53.16 302.16L55.22 305.35L57.4 308.44L59.7 311.45L62.1 314.36L64.62 317.18L67.23 319.9L69.96 322.52L72.77 325.04L75.69 327.44L78.7 329.74L81.79 331.92L84.98 333.98L88.24 335.92L91.58 337.74L95.01 339.43L98.5 340.99L102.06 342.42L105.69 343.71L109.39 344.86L113.14 345.87L116.96 346.73L120.82 347.44L124.74 348L128.71 348.4L132.72 348.64L136.77 348.73L140.82 348.64L144.83 348.4L148.79 348L152.71 347.44L156.58 346.73L160.39 345.87L164.15 344.86L167.84 343.71L171.47 342.42L175.04 340.99L178.53 339.43L181.95 337.74L185.3 335.92L188.56 333.98L191.74 331.92L194.84 329.74L197.85 327.44L200.76 325.04L203.58 322.52L206.3 319.9L208.92 317.18L211.43 314.36L213.84 311.45L216.13 308.44L218.31 305.35L220.38 302.16L222.32 298.9L224.14 295.55L224.97 293.86L225.08 293.86L225.82 292.02L227.38 288.53L229.07 285.1L230.89 281.76L232.83 278.5L234.89 275.31L237.07 272.22L239.37 269.21L241.77 266.29L244.29 263.48L246.91 260.75L249.63 258.14L252.45 255.62L255.36 253.22L258.37 250.92L261.46 248.74L264.65 246.68L267.91 244.74L271.26 242.92L274.68 241.23L278.17 239.67L281.73 238.24L285.36 236.95L289.06 235.8L292.81 234.79L296.63 233.93L300.49 233.22L304.41 232.66L308.38 232.26L312.39 232.02L316.44 231.93L320.49 232.02L324.5 232.26Z" id="b3TvPkgpEH"></path>
        <linearGradient id="gradientbhsmsfwtQ" gradientUnits="userSpaceOnUse" x1="316.93" y1="231.93" x2="316.93" y2="635.89">
            <stop style="stop-color: #7391f1;stop-opacity: 1" offset="0%"></stop>
            <stop style="stop-color: #701b1b;stop-opacity: 1" offset="100%"></stop>
        </linearGradient>
        <path d="M342.23 336.38L346.2 336.78L350.11 337.34L353.98 338.05L357.79 338.91L361.55 339.92L365.24 341.07L368.87 342.36L372.44 343.78L375.93 345.34L379.35 347.03L382.7 348.85L385.96 350.79L389.14 352.86L392.24 355.04L395.25 357.33L398.16 359.74L400.98 362.25L403.7 364.87L406.32 367.59L408.83 370.41L411.24 373.32L413.53 376.33L415.72 379.43L417.78 382.61L419.72 385.88L421.54 389.22L423.23 392.64L424.79 396.13L425.52 397.98L425.75 397.98L426.58 399.67L428.4 403.01L430.34 406.28L432.4 409.46L434.58 412.56L436.88 415.56L439.28 418.48L441.8 421.3L444.42 424.02L447.14 426.64L449.96 429.15L452.87 431.56L455.88 433.85L458.98 436.03L462.16 438.1L465.42 440.04L468.77 441.86L472.19 443.55L475.68 445.11L479.25 446.53L482.88 447.82L486.57 448.97L490.33 449.98L494.14 450.84L498.01 451.55L501.92 452.11L505.89 452.51L509.9 452.76L513.95 452.84L518 452.76L522.01 452.51L525.98 452.11L529.9 451.55L533.76 450.84L537.57 449.98L541.33 448.97L545.02 447.82L548.66 446.53L552.22 445.11L555.71 443.55L559.13 441.86L562.48 440.04L565.74 438.1L568.93 436.03L572.02 433.85L575.03 431.56L577.94 429.15L580.76 426.64L583.48 424.02L586.1 421.3L588.62 418.48L591.02 415.56L593.32 412.56L595.5 409.46L597.56 406.28L599.5 403.01L601.32 399.67L602.16 397.98L626.44 397.98L625.93 399.89L622.19 411.91L617.99 423.72L613.35 435.32L608.27 446.69L602.77 457.82L596.86 468.7L590.54 479.32L583.83 489.67L576.74 499.75L569.27 509.53L561.44 519.01L553.26 528.19L544.74 537.04L535.89 545.56L526.72 553.74L517.23 561.57L507.45 569.03L497.37 576.13L487.02 582.84L476.4 589.16L465.52 595.07L454.39 600.57L443.02 605.65L431.42 610.29L419.61 614.49L407.59 618.23L395.37 621.5L382.97 624.3L370.39 626.62L357.64 628.44L344.74 629.75L331.69 630.54L318.51 630.81L305.33 630.54L292.28 629.75L279.38 628.44L266.63 626.62L254.05 624.3L241.65 621.5L229.43 618.23L217.41 614.49L205.6 610.29L194 605.65L182.63 600.57L171.5 595.07L160.62 589.16L150 582.84L139.65 576.13L129.57 569.03L119.79 561.57L110.3 553.74L101.13 545.56L92.28 537.04L87.53 532.11L81.52 524.82L74.05 515.04L66.96 504.96L60.25 494.61L53.93 483.99L48.01 473.11L42.51 461.98L37.44 450.61L32.8 439.01L28.6 427.2L24.86 415.18L21.58 402.96L20.46 397.98L66.29 397.98L67.13 399.67L68.95 403.01L70.89 406.28L72.95 409.46L75.13 412.56L77.43 415.56L79.83 418.48L82.35 421.3L84.96 424.02L87.69 426.64L90.5 429.15L93.42 431.56L96.43 433.85L99.52 436.03L102.71 438.1L105.97 440.04L109.31 441.86L112.74 443.55L116.23 445.11L119.79 446.53L123.42 447.82L127.12 448.97L130.87 449.98L134.69 450.84L138.55 451.55L142.47 452.11L146.44 452.51L150.45 452.76L154.5 452.84L158.55 452.76L162.56 452.51L166.52 452.11L170.44 451.55L174.31 450.84L178.12 449.98L181.88 448.97L185.57 447.82L189.2 446.53L192.77 445.11L196.26 443.55L199.68 441.86L203.03 440.04L206.29 438.1L209.47 436.03L212.57 433.85L215.58 431.56L218.49 429.15L221.31 426.64L224.03 424.02L226.65 421.3L229.16 418.48L231.57 415.56L233.86 412.56L236.04 409.46L238.11 406.28L240.05 403.01L241.87 399.67L242.7 397.98L242.81 397.98L243.55 396.13L245.11 392.64L246.8 389.22L248.62 385.88L250.56 382.61L252.62 379.43L254.8 376.33L257.1 373.32L259.5 370.41L262.02 367.59L264.64 364.87L267.36 362.25L270.18 359.74L273.09 357.33L276.1 355.04L279.19 352.86L282.38 350.79L285.64 348.85L288.99 347.03L292.41 345.34L295.9 343.78L299.46 342.36L303.09 341.07L306.79 339.92L310.54 338.91L314.36 338.05L318.22 337.34L322.14 336.78L326.11 336.38L330.12 336.13L334.17 336.05L338.22 336.13L342.23 336.38Z" id="j3NoTPtGDC"></path>
        <linearGradient id="gradientb3o3GUTfOE" gradientUnits="userSpaceOnUse" x1="323.45" y1="336.05" x2="323.45" y2="630.81">
            <stop style="stop-color: #cb80f5;stop-opacity: 1" offset="0%"></stop>
            <stop style="stop-color: #113868;stop-opacity: 1" offset="100%"></stop>
        </linearGradient>
        <path d="M346.23 1.06L359.14 2.37L371.88 4.19L384.46 6.51L396.87 9.31L409.08 12.58L421.1 16.33L432.92 20.52L444.51 25.16L455.88 30.24L467.01 35.74L477.89 41.65L488.52 47.97L498.87 54.68L508.94 61.78L518.73 69.24L528.21 77.07L537.38 85.25L546.24 93.77L554.76 102.62L562.94 111.8L570.76 121.28L578.23 131.06L585.32 141.14L592.03 151.49L598.35 162.11L604.27 172.99L609.77 184.12L614.84 195.49L619.48 207.09L623.68 218.9L627.42 230.92L630.7 243.14L633.5 255.54L635.81 268.12L637.63 280.87L638.94 293.77L639.74 306.82L640.01 320L639.74 333.18L638.94 346.23L637.63 359.13L635.81 371.88L633.5 384.46L630.7 396.86L627.42 409.08L623.68 421.1L619.48 432.91L614.84 444.51L609.77 455.88L604.27 467.01L598.35 477.89L592.03 488.51L585.32 498.86L578.23 508.94L570.76 518.72L562.94 528.2L554.76 537.38L546.24 546.23L537.38 554.75L528.21 562.93L518.73 570.76L508.94 578.22L498.87 585.32L488.52 592.03L477.89 598.35L467.01 604.26L455.88 609.76L444.51 614.84L432.92 619.48L421.1 623.67L409.08 627.42L396.87 630.69L384.46 633.49L371.88 635.81L359.14 637.63L346.23 638.94L333.19 639.73L320.01 640L306.82 639.73L293.78 638.94L280.87 637.63L268.13 635.81L255.55 633.49L243.14 630.69L230.93 627.42L218.91 623.67L207.09 619.48L195.5 614.84L184.13 609.76L173 604.26L162.12 598.35L151.5 592.03L141.14 585.32L131.07 578.22L121.28 570.76L111.8 562.93L102.63 554.75L93.78 546.23L85.25 537.38L77.07 528.2L69.25 518.72L61.78 508.94L54.69 498.86L47.98 488.51L41.66 477.89L35.75 467.01L30.25 455.88L25.17 444.51L20.53 432.91L16.33 421.1L12.59 409.08L9.31 396.86L6.51 384.46L4.2 371.88L2.38 359.13L1.07 346.23L0.27 333.18L0.01 320L0.27 306.82L1.07 293.77L2.38 280.87L4.2 268.12L6.51 255.54L9.31 243.14L12.59 230.92L16.33 218.9L20.53 207.09L25.17 195.49L30.25 184.12L35.75 172.99L41.66 162.11L47.98 151.49L54.69 141.14L61.78 131.06L69.25 121.28L77.07 111.8L85.25 102.62L93.78 93.77L102.63 85.25L111.8 77.07L121.28 69.24L131.07 61.78L141.14 54.68L151.5 47.97L162.12 41.65L173 35.74L184.13 30.24L195.5 25.16L207.09 20.52L218.91 16.33L230.93 12.58L243.14 9.31L255.55 6.51L268.13 4.19L280.87 2.37L293.78 1.06L306.82 0.27L320.01 0L333.19 0.27L346.23 1.06ZM298.23 55.24L287.52 56.33L276.94 57.84L266.5 59.76L256.2 62.09L246.06 64.81L236.08 67.91L226.27 71.4L216.65 75.25L207.21 79.46L197.97 84.03L188.94 88.94L180.12 94.18L171.53 99.75L163.16 105.64L155.04 111.84L147.17 118.34L139.56 125.13L132.21 132.2L125.13 139.55L118.34 147.16L111.84 155.04L105.65 163.16L99.76 171.52L94.19 180.12L88.94 188.93L84.03 197.97L79.47 207.21L75.26 216.64L71.4 226.27L67.92 236.08L64.81 246.05L62.09 256.2L59.77 266.49L57.85 276.94L56.34 287.52L55.25 298.23L54.59 309.06L54.37 320L54.59 330.94L55.25 341.77L56.34 352.48L57.85 363.06L59.77 373.51L62.09 383.8L64.81 393.95L67.92 403.92L71.4 413.73L75.26 423.36L79.47 432.79L84.03 442.03L88.94 451.07L94.19 459.88L99.76 468.48L105.65 476.84L111.84 484.96L118.34 492.84L125.13 500.45L132.21 507.8L139.56 514.87L147.17 521.66L155.04 528.16L163.16 534.36L171.53 540.25L180.12 545.82L188.94 551.06L197.97 555.97L207.21 560.54L216.65 564.75L226.27 568.6L236.08 572.09L246.06 575.19L256.2 577.91L266.5 580.24L276.94 582.16L287.52 583.67L298.23 584.76L309.06 585.42L320.01 585.64L330.95 585.42L341.78 584.76L352.49 583.67L363.07 582.16L373.51 580.24L383.81 577.91L393.95 575.19L403.93 572.09L413.74 568.6L423.36 564.75L432.8 560.54L442.04 555.97L451.07 551.06L459.89 545.82L468.48 540.25L476.85 534.36L484.97 528.16L492.84 521.66L500.46 514.87L507.8 507.8L514.88 500.45L521.67 492.84L528.17 484.96L534.36 476.84L540.25 468.48L545.82 459.88L551.07 451.07L555.98 442.03L560.54 432.79L564.76 423.36L568.61 413.73L572.09 403.92L575.2 393.95L577.92 383.8L580.24 373.51L582.17 363.06L583.67 352.48L584.76 341.77L585.42 330.94L585.64 320L585.42 309.06L584.76 298.23L583.67 287.52L582.17 276.94L580.24 266.49L577.92 256.2L575.2 246.05L572.09 236.08L568.61 226.27L564.76 216.64L560.54 207.21L555.98 197.97L551.07 188.93L545.82 180.12L540.25 171.52L534.36 163.16L528.17 155.04L521.67 147.16L514.88 139.55L507.8 132.2L500.46 125.13L492.84 118.34L484.97 111.84L476.85 105.64L468.48 99.75L459.89 94.18L451.07 88.94L442.04 84.03L432.8 79.46L423.36 75.25L413.74 71.4L403.93 67.91L393.95 64.81L383.81 62.09L373.51 59.76L363.07 57.84L352.49 56.33L341.78 55.24L330.95 54.58L320.01 54.36L309.06 54.58L298.23 55.24Z" id="aRelH08Ml"></path>
        <linearGradient id="gradientamolcF3nt" gradientUnits="userSpaceOnUse" x1="320.01" y1="0" x2="320.01" y2="640">
            <stop style="stop-color: #f6d895;stop-opacity: 1" offset="0%"></stop>
            <stop style="stop-color: #ca78d9;stop-opacity: 1" offset="100%"></stop>
        </linearGradient>
        <linearGradient id="gradientb1jHEAFdzl" gradientUnits="userSpaceOnUse" x1="700.53" y1="269.83" x2="1150.13" y2="266.78">
            <stop style="stop-color: #57ffcc;stop-opacity: 0.54" offset="0%"></stop>
            <stop style="stop-color: #ca78d9;stop-opacity: 0.49" offset="100%"></stop>
        </linearGradient>
    </defs>
    <g>
        <g>
            <g>
                <g>
                    <use xlink:href="#a2ngUiwYNc" opacity="1" fill="url(#gradientffzol9Dcs)"></use>
                </g>
                <g>
                    <use xlink:href="#b3TvPkgpEH" opacity="1" fill="url(#gradientbhsmsfwtQ)"></use>
                </g>
                <g>
                    <use xlink:href="#j3NoTPtGDC" opacity="1" fill="url(#gradientb3o3GUTfOE)"></use>
                </g>
                <g>
                    <use xlink:href="#aRelH08Ml" opacity="1" fill="url(#gradientamolcF3nt)"></use>
                </g>
            </g>
        </g>
    </g>
</svg>